Coordinates
version=1
nRows=27
nColumns=38
inDegrees=no

Units are S.I. units (second, meters, Newtons, ...)
If the header above contains a line with 'inDegrees', this indicates whether rotational values are in degrees (yes) or radians (no).

endheader
time	pelvis_tilt	pelvis_list	pelvis_rotation	pelvis_tx	pelvis_ty	pelvis_tz	hip_flexion_r	hip_adduction_r	hip_rotation_r	knee_angle_r	ankle_angle_r	subtalar_angle_r	mtp_angle_r	hip_flexion_l	hip_adduction_l	hip_rotation_l	knee_angle_l	ankle_angle_l	subtalar_angle_l	mtp_angle_l	lumbar_extension	lumbar_bending	lumbar_rotation	arm_flex_r	arm_add_r	arm_rot_r	elbow_flex_r	pro_sup_r	wrist_flex_r	wrist_dev_r	arm_flex_l	arm_add_l	arm_rot_l	elbow_flex_l	pro_sup_l	wrist_flex_l	wrist_dev_l
10	0.60051	1.52853	0.965536	0.691408	1.26739	0.963344	0.453441	-0.0795723	-0.0984684	0.890299	0.114092	0	0	0.186331	0.0257298	-0.107022	0.19392	0.0212189	0	0	-0.0137727	0.0808457	0.0108588	0.67262	-0.328599	0.394709	1.14164	1.5708	0	0	0.798642	-0.0788555	0.634942	0.801596	1.5708	0	0
10.01	0.593702	1.5281	0.968226	0.69293	1.2632	0.963355	0.445373	-0.0764453	-0.0918752	0.904386	0.119881	0	0	0.189122	0.0237011	-0.109844	0.18903	0.0143332	0	0	-0.0133588	0.0810695	0.0153524	0.670794	-0.327383	0.39462	1.14295	1.5708	0	0	0.797045	-0.0805146	0.634631	0.802668	1.5708	0	0
10.02	0.592045	1.52772	0.965827	0.694531	1.25899	0.96337	0.436615	-0.0731044	-0.085625	0.917086	0.125808	0	0	0.191742	0.0213351	-0.112772	0.184221	0.00762552	0	0	-0.0131003	0.0814301	0.0197635	0.668745	-0.325824	0.393794	1.1442	1.5708	0	0	0.795595	-0.0825869	0.634634	0.80398	1.5708	0	0
10.03	0.5906	1.52724	0.963413	0.696171	1.25473	0.963365	0.427456	-0.0696319	-0.079623	0.928521	0.132233	0	0	0.194489	0.0188264	-0.115395	0.179443	0.000830397	0	0	-0.0127897	0.0818982	0.023986	0.666544	-0.324001	0.392816	1.14565	1.5708	0	0	0.794236	-0.0849659	0.634927	0.805579	1.5708	0	0
10.04	0.590825	1.52628	0.960046	0.697799	1.25042	0.963312	0.41803	-0.0660652	-0.0747594	0.938144	0.138267	0	0	0.198067	0.0159559	-0.11735	0.175398	-0.00546475	0	0	-0.0120086	0.0828494	0.0274396	0.664639	-0.322182	0.393131	1.14703	1.5708	0	0	0.793012	-0.0873186	0.635369	0.806362	1.5708	0	0
10.05	0.588684	1.52507	0.959005	0.699496	1.24603	0.963211	0.408578	-0.0622304	-0.0695315	0.946111	0.143703	0	0	0.202038	0.0128329	-0.119266	0.171495	-0.0119306	0	0	-0.0110428	0.0838777	0.0310108	0.66308	-0.320458	0.393642	1.14823	1.5708	0	0	0.792082	-0.0896475	0.636015	0.806564	1.5708	0	0
10.06	0.589538	1.52371	0.955422	0.701225	1.24158	0.963076	0.398676	-0.0581667	-0.0645941	0.95213	0.147844	0	0	0.206436	0.00939657	-0.121255	0.168056	-0.0183857	0	0	-0.0100321	0.0850832	0.0341466	0.661533	-0.318355	0.393422	1.14937	1.5708	0	0	0.791395	-0.0921622	0.636677	0.806795	1.5708	0	0
10.07	0.588395	1.52196	0.954549	0.702966	1.23708	0.962886	0.388554	-0.0539881	-0.0602717	0.955807	0.150991	0	0	0.211592	0.00580201	-0.122692	0.165138	-0.0245929	0	0	-0.00859934	0.0864885	0.0366055	0.660008	-0.316236	0.393328	1.15076	1.5708	0	0	0.790803	-0.0947781	0.636982	0.807155	1.5708	0	0
10.08	0.590769	1.5203	0.950432	0.70476	1.23252	0.962701	0.37758	-0.0497232	-0.0565487	0.956702	0.153901	0	0	0.216282	0.00215984	-0.123639	0.161539	-0.0312399	0	0	-0.00739705	0.0879269	0.0388814	0.65849	-0.313882	0.392851	1.1523	1.5708	0	0	0.790508	-0.0974275	0.63735	0.807595	1.5708	0	0
10.09	0.597863	1.51839	0.942046	0.706632	1.22792	0.962496	0.365935	-0.0450769	-0.0529031	0.954748	0.156502	0	0	0.221248	-0.00195002	-0.12471	0.158217	-0.037648	0	0	-0.00612909	0.0896856	0.0406699	0.657315	-0.311255	0.39242	1.15347	1.5708	0	0	0.790232	-0.100184	0.637632	0.808327	1.5708	0	0
10.1	0.604017	1.51623	0.934869	0.708571	1.22326	0.962247	0.353957	-0.0401839	-0.0497918	0.949628	0.158008	0	0	0.226401	-0.00626885	-0.125831	0.154626	-0.0441376	0	0	-0.00461661	0.0915272	0.0422776	0.656242	-0.308439	0.392107	1.15456	1.5708	0	0	0.790105	-0.102998	0.638022	0.808999	1.5708	0	0
10.11	0.61011	1.51401	0.928072	0.710554	1.21854	0.961979	0.341325	-0.035247	-0.0476613	0.94108	0.15763	0	0	0.231386	-0.0106288	-0.126735	0.150472	-0.0509555	0	0	-0.00309517	0.093405	0.0437338	0.65531	-0.305503	0.391407	1.15553	1.5708	0	0	0.790169	-0.105729	0.638409	0.809521	1.5708	0	0
10.12	0.618807	1.51184	0.918905	0.712594	1.21375	0.961702	0.327925	-0.0302233	-0.0462451	0.92948	0.155934	0	0	0.236081	-0.0151062	-0.127443	0.145904	-0.0580435	0	0	-0.00183481	0.0953711	0.0451494	0.65451	-0.302507	0.390218	1.1564	1.5708	0	0	0.790532	-0.108317	0.638597	0.809853	1.5708	0	0
10.13	0.644	1.51058	0.893688	0.714642	1.20889	0.961536	0.312062	-0.0251689	-0.0456138	0.91436	0.156591	0	0	0.238824	-0.0195977	-0.126762	0.139954	-0.066227	0	0	-0.00235195	0.0976595	0.0462616	0.654326	-0.299608	0.38925	1.15731	1.5708	0	0	0.791338	-0.110751	0.638389	0.810041	1.5708	0	0
10.14	0.655436	1.50872	0.882189	0.716723	1.20396	0.961271	0.296845	-0.0206344	-0.0468272	0.896362	0.160506	0	0	0.242754	-0.0238589	-0.126596	0.134205	-0.073909	0	0	-0.00181333	0.0996862	0.0475891	0.654276	-0.297384	0.389784	1.15821	1.5708	0	0	0.792138	-0.112783	0.637673	0.809775	1.5708	0	0
10.15	0.668617	1.50659	0.868889	0.718849	1.19893	0.960982	0.281267	-0.0157098	-0.0486238	0.874435	0.167015	0	0	0.246791	-0.0284273	-0.126206	0.128225	-0.0814364	0	0	-0.00135445	0.102021	0.0490814	0.654425	-0.295065	0.390357	1.15891	1.5708	0	0	0.793125	-0.114553	0.636601	0.809228	1.5708	0	0
10.16	0.685167	1.50424	0.852003	0.721046	1.19379	0.960679	0.265481	-0.0102522	-0.0512896	0.848441	0.175397	0	0	0.250812	-0.0334746	-0.126007	0.122135	-0.0884506	0	0	-0.00119167	0.104778	0.0510056	0.654882	-0.292781	0.390509	1.15962	1.5708	0	0	0.794334	-0.116045	0.635029	0.808564	1.5708	0	0
10.17	0.705366	1.5017	0.83119	0.723331	1.18852	0.960381	0.249621	-0.00410542	-0.0552456	0.817619	0.186277	0	0	0.254784	-0.0391002	-0.126096	0.116042	-0.0948866	0	0	-0.00159256	0.108052	0.0534534	0.655997	-0.291116	0.391442	1.16053	1.5708	0	0	0.795785	-0.117352	0.632955	0.808019	1.5708	0	0
10.18	0.729432	1.49881	0.806123	0.725698	1.1831	0.960105	0.234082	0.00293386	-0.0598326	0.781504	0.198923	0	0	0.258815	-0.0454826	-0.126531	0.110023	-0.100706	0	0	-0.00249089	0.111988	0.0564174	0.657876	-0.289767	0.392888	1.16121	1.5708	0	0	0.797485	-0.11839	0.630319	0.807349	1.5708	0	0
10.19	0.750923	1.49533	0.783099	0.728183	1.17754	0.959789	0.219944	0.0107262	-0.063374	0.743133	0.211882	0	0	0.263508	-0.0525402	-0.127428	0.104259	-0.105727	0	0	-0.00331507	0.116337	0.0599994	0.660088	-0.288364	0.394575	1.16163	1.5708	0	0	0.799437	-0.119309	0.627694	0.806302	1.5708	0	0
10.2	0.769933	1.49142	0.761883	0.730781	1.1718	0.959433	0.20815	0.0192089	-0.0664383	0.707067	0.223605	0	0	0.268682	-0.0601694	-0.128653	0.0986191	-0.109642	0	0	-0.00432643	0.121052	0.0642348	0.662955	-0.287132	0.397495	1.162	1.5708	0	0	0.801665	-0.120292	0.624926	0.805023	1.5708	0	0
10.21	0.780018	1.48667	0.748745	0.733477	1.16586	0.959034	0.200422	0.0281172	-0.0692222	0.675664	0.232356	0	0	0.275138	-0.0683031	-0.13057	0.0934594	-0.112164	0	0	-0.00486917	0.126034	0.0693078	0.665989	-0.28564	0.399805	1.16249	1.5708	0	0	0.804249	-0.121549	0.622922	0.803646	1.5708	0	0
10.22	0.812275	1.48176	0.713353	0.736173	1.15979	0.958874	0.193598	0.0385182	-0.0726828	0.647552	0.237031	0	0	0.279863	-0.0780502	-0.131881	0.0881214	-0.113136	0	0	-0.00762681	0.132898	0.0743677	0.670111	-0.284208	0.402703	1.16259	1.5708	0	0	0.807208	-0.122506	0.620131	0.801768	1.5708	0	0
10.23	0.847172	1.47624	0.675228	0.738829	1.15359	0.95886	0.189488	0.0495045	-0.0762844	0.624041	0.238991	0	0	0.284315	-0.0884836	-0.132942	0.0824895	-0.112741	0	0	-0.0110949	0.140852	0.079541	0.674916	-0.283049	0.406407	1.16268	1.5708	0	0	0.81065	-0.123259	0.617737	0.79937	1.5708	0	0
10.24	0.876385	1.4705	0.643135	0.741411	1.14731	0.958919	0.187848	0.0600931	-0.0807385	0.604748	0.239325	0	0	0.288742	-0.0986033	-0.133552	0.0762277	-0.110775	0	0	-0.0146441	0.148899	0.0844698	0.679812	-0.281712	0.409387	1.16296	1.5708	0	0	0.814852	-0.12409	0.616645	0.796529	1.5708	0	0
10.25	0.903397	1.46469	0.613933	0.743877	1.14098	0.959032	0.187024	0.070489	-0.0851608	0.586978	0.238202	0	0	0.292649	-0.108365	-0.132596	0.0692206	-0.106286	0	0	-0.0183997	0.15707	0.0886741	0.684964	-0.280026	0.41231	1.1633	1.5708	0	0	0.819867	-0.125104	0.616766	0.792976	1.5708	0	0
10.26	0.920075	1.45912	0.595878	0.746192	1.1346	0.959111	0.187503	0.07986	-0.0887057	0.570294	0.23617	0	0	0.296766	-0.11682	-0.130022	0.0616236	-0.0989417	0	0	-0.0215041	0.164532	0.0920928	0.689979	-0.277916	0.41498	1.16396	1.5708	0	0	0.825677	-0.126364	0.618746	0.788584	1.5708	0	0
